<svg xmlns="http://www.w3.org/2000/svg" viewBox="0 0 24 24" width="1em" height="1em" fill="#001a66">
  <path d="M8.5 3H5.5C4.1 3 3 4.1 3 5.5V8.5C3 9.9 4.1 11 5.5 11H8.5C9.9 11 11 9.9 11 8.5V5.5C11 4.1 9.9 3 8.5 3zM18.5 3H15.5C14.1 3 13 4.1 13 5.5V8.5C13 9.9 14.1 11 15.5 11H18.5C19.9 11 21 9.9 21 8.5V5.5C21 4.1 19.9 3 18.5 3zM8.5 13H5.5C4.1 13 3 14.1 3 15.5V18.5C3 19.9 4.1 21 5.5 21H8.5C9.9 21 11 19.9 11 18.5V15.5C11 14.1 9.9 13 8.5 13zM18.5 13H15.5C14.1 13 13 14.1 13 15.5V18.5C13 19.9 14.1 21 15.5 21H18.5C19.9 21 21 19.9 21 18.5V15.5C21 14.1 19.9 13 18.5 13z"/>
</svg>
